<?xml version="1.0" encoding="utf-8"?>
<!-- Generator: Adobe Illustrator 26.5.0, SVG Export Plug-In . SVG Version: 6.00 Build 0)  -->
<svg version="1.1" id="Katy_Edit" xmlns="http://www.w3.org/2000/svg" xmlns:xlink="http://www.w3.org/1999/xlink" x="0px" y="0px"
	 viewBox="0 0 383.25 384.08" style="enable-background:new 0 0 383.25 384.08;" xml:space="preserve">
<style type="text/css">
	.st0{opacity:0.82;fill:#00C2F3;}
	.st1{fill:#414042;}
</style>
<g>
	<circle class="st0" cx="190.52" cy="193.02" r="188.05"/>
	<g>
		<g>
			<path class="st1" d="M348.55,208.68c-15.89-4.24-29.96-14.32-40.6-28.31c-1.21-1.58-2.37-3.21-3.49-4.89
				c-0.02-0.02-0.03-0.05-0.05-0.07c-1.99-2.55-4.17-4.9-6.49-7.02c-8.86-8.1-19.9-12.9-31.85-12.9c-13.42,0-25.65,6.04-35,15.99
				c-0.01,0.01-0.01,0.02-0.03,0.02c-1.45,1.93-2.99,3.77-4.58,5.54l-0.03,0.04c-12.45,13.84-28.59,22.86-46.44,24.6
				c-2.12,0.22-4.27,0.33-6.44,0.33c-42.88,0-94.29-46.32-95.02-98.19c-0.01-0.46-0.26-0.86-0.62-1c-0.71-0.26-1.21-0.45-1.56-0.59
				c0.17,0.18-0.19,0.31-2.47,0.02c-0.38-0.05-0.75,0.21-0.9,0.63c-7.05,19.5-10.96,41.07-10.96,63.72
				c0,16.36,2.04,32.13,5.82,46.98c3.06,12.99,0.89,6.53,5.26,19.49c-3.56,3.67-12.41,12.05-23.07,28.61
				c0.8,1.1,1.62,2.19,2.46,3.27c0.59-0.67,1.19-1.32,1.81-1.94c7.95-7.87,17.48-14.12,26.52-19.91
				c9.25-5.92,18.82-11.13,28.65-15.46c14.01-6.17,28.59-10.65,43.41-12.64c8.77-1.17,17.61-1.51,26.42-0.98
				c-14.44,0.05-28.51,2.9-42.24,8.36c-6.7,2.67-13.26,5.87-19.66,9.48c-8.18,4.62-16.32,9.34-24.12,14.88
				c-7.78,5.53-15.23,11.81-21.99,19.07c-3.1,3.33-6.04,6.88-8.79,10.64c0.65,0.67,1.3,1.34,1.96,2c2.92-1.98,5.85-3.88,8.74-5.73
				c9.25-5.92,18.82-11.13,28.65-15.46c14.01-6.17,28.59-10.65,43.41-12.64c8.77-1.17,17.61-1.51,26.41-0.98
				c-14.44,0.05-28.51,2.9-42.24,8.36c-6.7,2.67-13.26,5.87-19.66,9.48c-8.18,4.62-16.32,9.34-24.12,14.88
				c-4.33,3.07-8.54,6.39-12.6,9.96c2.54,2.15,5.14,4.2,7.81,6.17c3.84-2,7.73-3.88,11.67-5.61c14.01-6.17,28.59-10.65,43.41-12.64
				c8.77-1.17,17.61-1.51,26.41-0.98c-14.44,0.05-28.51,2.9-42.24,8.36c-6.7,2.67-13.26,5.87-19.66,9.48
				c-3.93,2.22-7.85,4.46-11.73,6.81c6.32,4.07,12.89,7.64,19.6,10.65c7.18-2.11,14.47-3.71,21.81-4.7
				c8.77-1.17,17.61-1.51,26.42-0.98c-14.37,0.05-28.37,2.87-42.03,8.28c10.31,4.05,20.85,6.78,31.22,8
				c17.24-0.41,35.08-3.38,45.13-6.66c19.29-6.3,52.28-11.49,89.51-51.32c-18.07,32.87-61.72,54.76-79.91,61.59
				c-2.3,0.86-4.71,1.66-7.19,2.4c11.51,0.22,23-1.6,34.4-5.36c4.86-1.6,9.64-3.54,14.32-5.81c19-9.21,36.22-23.89,49.49-42.78
				c9.5-13.53,15.93-29.53,27.31-41c5.12-5.16,10.78-9.52,16.8-12.95c3.22-1.83,8.36-5.02,12.99-6.56
				C349.49,210.44,349.44,208.92,348.55,208.68z"/>
		</g>
		<g>
			<path class="st1" d="M76.36,102.24C76.13,102,74.94,101.68,76.36,102.24L76.36,102.24z"/>
		</g>
	</g>
</g>
</svg>
