<?xml version="1.0" encoding="utf-8"?>
<!-- Generator: Adobe Illustrator 26.5.0, SVG Export Plug-In . SVG Version: 6.00 Build 0)  -->
<svg version="1.1" id="Katy_Edit" xmlns="http://www.w3.org/2000/svg" xmlns:xlink="http://www.w3.org/1999/xlink" x="0px" y="0px"
	 viewBox="0 0 383.25 384.08" style="enable-background:new 0 0 383.25 384.08;" xml:space="preserve">
<style type="text/css">
	.st0{opacity:0.82;fill:#00C2F3;enable-background:new    ;}
</style>
<path class="st0" d="M190.52,4.97C86.66,4.97,2.47,89.16,2.47,193.02s84.19,188.05,188.05,188.05s188.05-84.19,188.05-188.05
	S294.38,4.97,190.52,4.97z M348.59,210.71c-4.63,1.54-9.77,4.73-12.99,6.56c-6.02,3.43-11.68,7.79-16.8,12.95
	c-11.38,11.47-17.81,27.47-27.31,41C278.22,290.11,261,304.79,242,314c-4.68,2.27-9.46,4.21-14.32,5.81
	c-11.4,3.76-22.89,5.58-34.4,5.36c2.48-0.74,4.89-1.54,7.19-2.4c18.19-6.83,61.84-28.72,79.91-61.59
	c-37.23,39.83-70.22,45.02-89.51,51.32c-10.05,3.28-27.89,6.25-45.13,6.66c-10.37-1.22-20.91-3.95-31.22-8
	c13.66-5.41,27.66-8.23,42.03-8.28c-8.81-0.53-17.65-0.19-26.42,0.98c-7.34,0.99-14.63,2.59-21.81,4.7
	c-6.71-3.01-13.28-6.58-19.6-10.65c3.88-2.35,7.8-4.59,11.73-6.81c6.4-3.61,12.96-6.81,19.66-9.48c13.73-5.46,27.8-8.31,42.24-8.36
	c-8.8-0.53-17.64-0.19-26.41,0.98c-14.82,1.99-29.4,6.47-43.41,12.64c-3.94,1.73-7.83,3.61-11.67,5.61
	c-2.67-1.97-5.27-4.02-7.81-6.17c4.06-3.57,8.27-6.89,12.6-9.96c7.8-5.54,15.94-10.26,24.12-14.88c6.4-3.61,12.96-6.81,19.66-9.48
	c13.73-5.46,27.8-8.31,42.24-8.36c-8.8-0.53-17.64-0.19-26.41,0.98c-14.82,1.99-29.4,6.47-43.41,12.64
	c-9.83,4.33-19.4,9.54-28.65,15.46c-2.89,1.85-5.82,3.75-8.74,5.73c-0.66-0.66-1.31-1.33-1.96-2c2.75-3.76,5.69-7.31,8.79-10.64
	c6.76-7.26,14.21-13.54,21.99-19.07c7.8-5.54,15.94-10.26,24.12-14.88c6.4-3.61,12.96-6.81,19.66-9.48
	c13.73-5.46,27.8-8.31,42.24-8.36c-8.81-0.53-17.65-0.19-26.42,0.98c-14.82,1.99-29.4,6.47-43.41,12.64
	c-9.83,4.33-19.4,9.54-28.65,15.46c-9.04,5.79-18.57,12.04-26.52,19.91c-0.62,0.62-1.22,1.27-1.81,1.94
	c-0.84-1.08-1.66-2.17-2.46-3.27c10.66-16.56,19.51-24.94,23.07-28.61c-4.37-12.96-2.2-6.5-5.26-19.49
	c-3.78-14.85-5.82-30.62-5.82-46.98c0-22.65,3.91-44.22,10.96-63.72c0.15-0.42,0.52-0.68,0.9-0.63c2.25,0.29,2.63,0.16,2.47-0.01
	c-1.4-0.55-0.25-0.24,0,0c0,0,0,0,0,0c0.35,0.14,0.85,0.33,1.56,0.59c0.36,0.14,0.61,0.54,0.62,1
	c0.73,51.87,52.14,98.19,95.02,98.19c2.17,0,4.32-0.11,6.44-0.33c17.85-1.74,33.99-10.76,46.44-24.6l0.03-0.04
	c1.59-1.77,3.13-3.61,4.58-5.54c0.02,0,0.02-0.01,0.03-0.02c9.35-9.95,21.58-15.99,35-15.99c11.95,0,22.99,4.8,31.85,12.9
	c2.32,2.12,4.5,4.47,6.49,7.02c0.02,0.02,0.03,0.05,0.05,0.07c1.12,1.68,2.28,3.31,3.49,4.89c10.64,13.99,24.71,24.07,40.6,28.31
	C349.44,208.92,349.49,210.44,348.59,210.71z"/>
</svg>
