<?xml version="1.0" encoding="UTF-8"?>
<svg id="SvgjsSvg1033" xmlns="http://www.w3.org/2000/svg" xmlns:svgjs="http://svgjs.dev/svgjs" version="1.1" viewBox="0 0 144 144">
  <!-- Generator: Adobe Illustrator 29.1.0, SVG Export Plug-In . SVG Version: 2.1.0 Build 142)  -->
  <defs>
    <style>
      .st0 {
        fill: #00c1f2;
      }

      .st1 {
        fill: #01313d;
      }
    </style>
  </defs>
  <circle class="st0" cx="72" cy="72" r="72"/>
  <path class="st1" d="M132.5,78c-6.1-1.6-11.5-5.5-15.5-10.8-.5-.6-.9-1.2-1.3-1.9h0c-.8-1-1.6-1.9-2.5-2.7-3.4-3.1-7.6-4.9-12.2-4.9s-9.8,2.3-13.4,6.1h0c-.6.7-1.1,1.4-1.8,2.1h0c-4.8,5.3-10.9,8.8-17.8,9.4-.8,0-1.6,0-2.5,0-16.4,0-36.1-17.7-36.4-37.6,0-.2,0-.3-.2-.4-.3,0-.7,0-1.5-.2-.1,0-.3,0-.3.2-2.7,7.5-4.2,15.7-4.2,24.4s.8,12.3,2.2,18c1.2,5,.3,2.5,2,7.5-1.4,1.4-4.7,4.6-8.8,11,.3.4.6.8.9,1.3.2-.3.5-.5.7-.7,3-3,6.7-5.4,10.2-7.6,3.5-2.3,7.2-4.3,11-5.9,5.4-2.4,10.9-4.1,16.6-4.8,3.4-.5,6.7-.6,10.1-.4-5.5,0-10.9,1.1-16.2,3.2-2.6,1-5.1,2.2-7.5,3.6-3.1,1.8-6.2,3.6-9.2,5.7s-5.8,4.5-8.4,7.3c-1.2,1.3-2.3,2.6-3.4,4.1.2.3.5.5.8.8,1.1-.8,2.2-1.5,3.3-2.2,3.5-2.3,7.2-4.3,11-5.9,5.4-2.4,10.9-4.1,16.6-4.8,3.4-.5,6.7-.6,10.1-.4-5.5,0-10.9,1.1-16.2,3.2-2.6,1-5.1,2.2-7.5,3.6-3.1,1.8-6.2,3.6-9.2,5.7-1.7,1.2-3.3,2.4-4.8,3.8,1,.8,2,1.6,3,2.4,1.5-.8,3-1.5,4.5-2.1,5.4-2.4,10.9-4.1,16.6-4.8,3.4-.5,6.7-.6,10.1-.4-5.5,0-10.9,1.1-16.2,3.2-2.6,1-5.1,2.2-7.5,3.6-1.5.8-3,1.7-4.5,2.6,2.4,1.6,4.9,2.9,7.5,4.1,2.7-.8,5.5-1.4,8.4-1.8,3.4-.5,6.7-.6,10.1-.4-5.5,0-10.9,1.1-16.1,3.2,3.9,1.5,8,2.6,12,3.1,6.6-.2,13.4-1.3,17.3-2.6,7.4-2.4,20-4.4,34.3-19.6-6.9,12.6-23.6,21-30.6,23.6-.9.3-1.8.6-2.8.9,4.4,0,8.8-.6,13.2-2,1.9-.6,3.7-1.4,5.5-2.2,7.3-3.5,13.9-9.1,18.9-16.4,3.6-5.2,6.1-11.3,10.5-15.7,2-2,4.1-3.6,6.4-5,1.2-.7,3.2-1.9,5-2.5.3,0,.3-.7,0-.8h0l-.3-.3Z"/>
</svg>